<svg width="20" height="20" viewBox="0 0 20 20" fill="none" xmlns="http://www.w3.org/2000/svg">
<path d="M4.89318 2.16814C4.84958 2.0956 4.82085 2.01512 4.80866 1.93138C4.79648 1.84763 4.80107 1.7623 4.82219 1.68035C4.84331 1.5984 4.88053 1.52147 4.93167 1.45405C4.98281 1.38662 5.04686 1.33005 5.12008 1.28762C5.19331 1.2452 5.27424 1.21777 5.35817 1.20693C5.4421 1.19609 5.52735 1.20206 5.60895 1.2245C5.69055 1.24693 5.76687 1.28538 5.83346 1.3376C5.90005 1.38982 5.95559 1.45477 5.99683 1.52867L6.81808 2.94556C6.90417 3.09213 6.92851 3.26689 6.88574 3.43141C6.84298 3.59592 6.73661 3.73671 6.59004 3.8228C6.44347 3.90889 6.26871 3.93323 6.1042 3.89047C5.93968 3.8477 5.79889 3.74134 5.7128 3.59477L4.89318 2.16814ZM9.99757 4.27806C11.3203 4.27908 12.6018 4.73868 13.6237 5.57857C14.6456 6.41845 15.3447 7.58666 15.6019 8.88418C15.8591 10.1817 15.6585 11.5282 15.0342 12.6944C14.41 13.8606 13.4007 14.7743 12.1783 15.2798C10.956 15.7853 9.59616 15.8514 8.33056 15.4668C7.06495 15.0822 5.97184 14.2706 5.23746 13.1705C4.50307 12.0703 4.17284 10.7496 4.30301 9.43322C4.43319 8.11688 5.01573 6.88639 5.95139 5.95139C6.48196 5.41951 7.11241 4.99772 7.80651 4.71028C8.50061 4.42283 9.24468 4.27539 9.99594 4.27643L9.99757 4.27806ZM9.48794 0.673338C9.48357 0.586543 9.49689 0.499766 9.52709 0.418279C9.5573 0.336792 9.60375 0.262297 9.66364 0.199319C9.72352 0.136342 9.79559 0.0861977 9.87545 0.0519333C9.95532 0.017669 10.0413 0 10.1282 0C10.2151 0 10.3011 0.017669 10.381 0.0519333C10.4608 0.0861977 10.5329 0.136342 10.5928 0.199319C10.6527 0.262297 10.6991 0.336792 10.7293 0.418279C10.7595 0.499766 10.7729 0.586543 10.7685 0.673338V2.30609C10.7729 2.39289 10.7595 2.47966 10.7293 2.56115C10.6991 2.64264 10.6527 2.71713 10.5928 2.78011C10.5329 2.84309 10.4608 2.89323 10.381 2.9275C10.3011 2.96176 10.2151 2.97943 10.1282 2.97943C10.0413 2.97943 9.95532 2.96176 9.87545 2.9275C9.79559 2.89323 9.72352 2.84309 9.66364 2.78011C9.60375 2.71713 9.5573 2.64264 9.52709 2.56115C9.49689 2.47966 9.48357 2.39289 9.48794 2.30609V0.673338ZM14.2239 1.66338C14.2627 1.58579 14.317 1.51694 14.3834 1.46104C14.4497 1.40514 14.5268 1.36337 14.6099 1.33828C14.6929 1.3132 14.7802 1.30532 14.8665 1.31514C14.9527 1.32496 15.036 1.35226 15.1113 1.39538C15.1866 1.43851 15.2523 1.49654 15.3044 1.56593C15.3565 1.63531 15.3938 1.7146 15.4142 1.79894C15.4346 1.88328 15.4376 1.97089 15.423 2.05642C15.4084 2.14195 15.3764 2.22359 15.3292 2.29635L14.5079 3.71812C14.4673 3.79287 14.4121 3.85874 14.3457 3.91185C14.2792 3.96496 14.2028 4.00424 14.1209 4.02737C14.039 4.0505 13.9534 4.05702 13.8689 4.04654C13.7845 4.03606 13.703 4.0088 13.6293 3.96636C13.5555 3.92391 13.4911 3.86714 13.4396 3.7994C13.3881 3.73165 13.3507 3.65429 13.3296 3.57188C13.3085 3.48946 13.3041 3.40365 13.3166 3.3195C13.3292 3.23536 13.3584 3.15457 13.4027 3.08189L14.2239 1.66175V1.66338ZM17.8237 4.89318C17.9703 4.80838 18.1446 4.78528 18.3082 4.82896C18.4718 4.87264 18.6113 4.97951 18.6961 5.12608C18.7809 5.27265 18.804 5.4469 18.7603 5.6105C18.7167 5.77411 18.6098 5.91366 18.4632 5.99845L17.0431 6.8197C16.9705 6.86233 16.8902 6.89024 16.8069 6.90185C16.7235 6.91346 16.6387 6.90854 16.5572 6.88737C16.4758 6.86619 16.3993 6.82918 16.3321 6.77844C16.265 6.72771 16.2085 6.66424 16.1658 6.59167C16.1232 6.51909 16.0953 6.43883 16.0837 6.35547C16.0721 6.27211 16.077 6.18728 16.0982 6.10582C16.1193 6.02436 16.1564 5.94787 16.2071 5.88071C16.2578 5.81356 16.3213 5.75705 16.3939 5.71443L17.8237 4.89318ZM19.3267 9.48956C19.4135 9.48519 19.5002 9.49851 19.5817 9.52872C19.6632 9.55892 19.7377 9.60538 19.8007 9.66526C19.8637 9.72515 19.9138 9.79721 19.9481 9.87707C19.9823 9.95694 20 10.0429 20 10.1298C20 10.2167 19.9823 10.3027 19.9481 10.3826C19.9138 10.4625 19.8637 10.5345 19.8007 10.5944C19.7377 10.6543 19.6632 10.7008 19.5817 10.731C19.5002 10.7612 19.4135 10.7745 19.3267 10.7701H17.6858C17.599 10.7745 17.5122 10.7612 17.4307 10.731C17.3492 10.7008 17.2748 10.6543 17.2118 10.5944C17.1488 10.5345 17.0987 10.4625 17.0644 10.3826C17.0301 10.3027 17.0125 10.2167 17.0125 10.1298C17.0125 10.0429 17.0301 9.95694 17.0644 9.87707C17.0987 9.79721 17.1488 9.72515 17.2118 9.66526C17.2748 9.60538 17.3492 9.55892 17.4307 9.52872C17.5122 9.49851 17.599 9.48519 17.6858 9.48956H19.3267ZM18.3285 14.2255C18.4049 14.2651 18.4726 14.3198 18.5273 14.3862C18.5821 14.4526 18.6228 14.5295 18.6471 14.6121C18.6714 14.6946 18.6787 14.7813 18.6685 14.8668C18.6584 14.9523 18.6311 15.0348 18.5883 15.1095C18.5454 15.1841 18.4879 15.2493 18.4191 15.3012C18.3504 15.353 18.2719 15.3904 18.1883 15.4111C18.1048 15.4317 18.0179 15.4353 17.9329 15.4215C17.8479 15.4077 17.7666 15.3768 17.6939 15.3308L16.2721 14.5096C16.1953 14.4704 16.1272 14.416 16.0719 14.3497C16.0167 14.2834 15.9755 14.2066 15.9508 14.124C15.9261 14.0413 15.9184 13.9545 15.9282 13.8688C15.938 13.7831 15.9651 13.7002 16.0079 13.6253C16.0506 13.5504 16.1081 13.4849 16.1769 13.4328C16.2457 13.3807 16.3243 13.3431 16.408 13.3223C16.4918 13.3015 16.5788 13.2979 16.664 13.3117C16.7492 13.3255 16.8306 13.3565 16.9035 13.4027L18.3236 14.2239L18.3285 14.2255ZM15.1003 17.8237C15.1851 17.9703 15.2082 18.1446 15.1646 18.3082C15.1209 18.4718 15.014 18.6113 14.8674 18.6961C14.7209 18.7809 14.5466 18.804 14.383 18.7603C14.2194 18.7167 14.0799 18.6098 13.9951 18.4632L13.1706 17.0431C13.1279 16.9705 13.1 16.8902 13.0884 16.8069C13.0768 16.7235 13.0817 16.6387 13.1029 16.5572C13.1241 16.4758 13.1611 16.3993 13.2118 16.3321C13.2626 16.265 13.326 16.2085 13.3986 16.1658C13.5452 16.0797 13.7199 16.0554 13.8844 16.0982C13.9659 16.1193 14.0424 16.1564 14.1095 16.2071C14.1767 16.2578 14.2332 16.3213 14.2758 16.3939L15.0971 17.8156L15.1003 17.8237ZM10.5039 19.3267C10.5083 19.4135 10.495 19.5002 10.4648 19.5817C10.4346 19.6632 10.3881 19.7377 10.3282 19.8007C10.2684 19.8637 10.1963 19.9138 10.1164 19.9481C10.0366 19.9823 9.95057 20 9.86367 20C9.77676 20 9.69076 19.9823 9.6109 19.9481C9.53104 19.9138 9.45897 19.8637 9.39909 19.8007C9.3392 19.7377 9.29274 19.6632 9.26254 19.5817C9.23234 19.5002 9.21902 19.4135 9.22339 19.3267V17.6858C9.21902 17.599 9.23234 17.5122 9.26254 17.4307C9.29274 17.3492 9.3392 17.2748 9.39909 17.2118C9.45897 17.1488 9.53104 17.0987 9.6109 17.0644C9.69076 17.0301 9.77676 17.0125 9.86367 17.0125C9.95057 17.0125 10.0366 17.0301 10.1164 17.0644C10.1963 17.0987 10.2684 17.1488 10.3282 17.2118C10.3881 17.2748 10.4346 17.3492 10.4648 17.4307C10.495 17.5122 10.5083 17.599 10.5039 17.6858V19.3267ZM5.76799 18.3285C5.68004 18.4674 5.54187 18.567 5.38229 18.6065C5.22271 18.646 5.05405 18.6223 4.91148 18.5405C4.76891 18.4586 4.66346 18.3249 4.61711 18.1671C4.57076 18.0094 4.58709 17.8399 4.66271 17.6939L5.48396 16.2721C5.52215 16.1936 5.57606 16.1238 5.64235 16.0669C5.70864 16.0101 5.78589 15.9674 5.86933 15.9417C5.95276 15.9159 6.0406 15.9075 6.1274 15.9171C6.2142 15.9267 6.29811 15.9539 6.37394 15.9973C6.44976 16.0406 6.51589 16.099 6.56821 16.1689C6.62054 16.2388 6.65795 16.3187 6.67814 16.4037C6.69832 16.4886 6.70084 16.5768 6.68555 16.6628C6.67026 16.7488 6.63748 16.8307 6.58923 16.9035L5.76799 18.3236V18.3285ZM2.16814 15.1003C2.09556 15.1423 2.01543 15.1696 1.93231 15.1806C1.8492 15.1916 1.76472 15.1862 1.68371 15.1646C1.60271 15.1429 1.52675 15.1056 1.46019 15.0546C1.39362 15.0036 1.33775 14.94 1.29576 14.8674C1.25378 14.7949 1.22649 14.7147 1.21547 14.6316C1.20446 14.5485 1.20992 14.464 1.23154 14.383C1.25317 14.302 1.29054 14.226 1.34152 14.1595C1.3925 14.0929 1.45609 14.037 1.52867 13.9951L2.94556 13.1706C3.01835 13.1279 3.09882 13.1001 3.18238 13.0885C3.26593 13.077 3.35095 13.082 3.43256 13.1034C3.51417 13.1247 3.59078 13.1619 3.65801 13.2128C3.72525 13.2638 3.7818 13.3274 3.82442 13.4002C3.86705 13.473 3.89493 13.5535 3.90645 13.637C3.91798 13.7206 3.91294 13.8056 3.89161 13.8872C3.87029 13.9688 3.8331 14.0454 3.78216 14.1127C3.73123 14.1799 3.66755 14.2365 3.59477 14.2791L2.173 15.1003H2.16814ZM0.673338 10.5039C0.586543 10.5083 0.499766 10.495 0.418279 10.4648C0.336792 10.4346 0.262297 10.3881 0.199319 10.3282C0.136342 10.2684 0.0861977 10.1963 0.0519333 10.1164C0.017669 10.0366 0 9.95057 0 9.86367C0 9.77676 0.017669 9.69076 0.0519333 9.6109C0.0861977 9.53104 0.136342 9.45897 0.199319 9.39909C0.262297 9.3392 0.336792 9.29274 0.418279 9.26254C0.499766 9.23234 0.586543 9.21902 0.673338 9.22339H2.30609C2.39289 9.21902 2.47966 9.23234 2.56115 9.26254C2.64264 9.29274 2.71713 9.3392 2.78011 9.39909C2.84309 9.45897 2.89323 9.53104 2.9275 9.6109C2.96176 9.69076 2.97943 9.77676 2.97943 9.86367C2.97943 9.95057 2.96176 10.0366 2.9275 10.1164C2.89323 10.1963 2.84309 10.2684 2.78011 10.3282C2.71713 10.3881 2.64264 10.4346 2.56115 10.4648C2.47966 10.495 2.39289 10.5083 2.30609 10.5039H0.673338ZM1.66338 5.76799C1.58579 5.72915 1.51694 5.67488 1.46104 5.60852C1.40514 5.54215 1.36337 5.46508 1.33828 5.38202C1.3132 5.29895 1.30532 5.21165 1.31514 5.12543C1.32496 5.03922 1.35226 4.95592 1.39538 4.88062C1.43851 4.80533 1.49654 4.73962 1.56593 4.68752C1.63531 4.63543 1.7146 4.59804 1.79894 4.57764C1.88328 4.55724 1.97089 4.55426 2.05642 4.56889C2.14195 4.58352 2.22359 4.61544 2.29635 4.66271L3.71812 5.48396C3.79287 5.52458 3.85874 5.57975 3.91185 5.64622C3.96496 5.71268 4.00424 5.7891 4.02737 5.87097C4.0505 5.95285 4.05702 6.03852 4.04654 6.12295C4.03606 6.20738 4.0088 6.28886 3.96636 6.3626C3.92391 6.43633 3.86714 6.50083 3.7994 6.5523C3.73165 6.60377 3.65429 6.64116 3.57188 6.66228C3.48946 6.68339 3.40365 6.68781 3.3195 6.67527C3.23536 6.66272 3.15457 6.63347 3.08189 6.58923L1.66338 5.76799Z" fill="white"/>
</svg>
