<svg width="20" height="20" viewBox="0 0 20 20" fill="none" xmlns="http://www.w3.org/2000/svg">
<path d="M13.8265 0.744245C17.5553 2.28985 20 5.93318 20 9.99183C20 12.7557 18.8802 15.2573 17.0719 17.0684C15.262 18.8795 12.762 20 10 20C7.23958 20 4.73958 18.8795 2.92969 17.0684C1.11979 15.2557 0 12.7541 0 9.99183C0 5.96413 2.50163 2.20679 6.22396 0.679098C8.52865 -0.26553 11.5316 -0.206898 13.8265 0.744245ZM8.46192 9.72473C8.58724 9.58792 8.73861 9.47065 8.903 9.38108V5.02764C8.903 4.58302 9.2627 4.22471 9.7054 4.22471C10.1497 4.22471 10.5094 4.58465 10.5094 5.02764V9.38108C10.8024 9.53906 11.0433 9.7801 11.2012 10.0733H14.502C14.9463 10.0733 15.3044 10.4332 15.3044 10.8762C15.3044 11.3192 14.9447 11.6791 14.502 11.6791H11.2028C10.9163 12.2133 10.3548 12.5765 9.70703 12.5765C9.19759 12.5765 8.74186 12.3518 8.43099 11.9967C7.85319 11.3371 7.88086 10.3534 8.46192 9.72473ZM15.9359 4.20842C11.7936 0.0634608 4.80632 1.23447 2.38281 6.45599C1.88477 7.53091 1.60645 8.72798 1.60645 9.9902C1.60645 12.3111 2.54557 14.4104 4.06413 15.93C5.58268 17.4495 7.68229 18.3909 10 18.3909C12.3177 18.3909 14.4173 17.4495 15.9359 15.93C17.4544 14.4104 18.3952 12.3094 18.3952 9.9902C18.3952 8.67423 18.0924 7.4283 17.5537 6.31918C17.1436 5.48041 16.5967 4.86966 15.9359 4.20842Z" fill="white"/>
</svg>
