<svg width="20" height="21" viewBox="0 0 20 21" fill="none" xmlns="http://www.w3.org/2000/svg">
<path d="M4.59422 3.73732C4.74191 3.69395 4.8979 3.7807 4.94104 3.92918C4.98419 4.07766 4.8979 4.23448 4.75021 4.27785C4.10967 4.4647 3.60355 4.74664 3.24677 5.13702C2.89664 5.51906 2.68755 6.01455 2.63279 6.63348C2.61951 6.78863 2.48344 6.90375 2.32911 6.8904C2.17479 6.87705 2.06029 6.74025 2.07356 6.5851C2.13828 5.83604 2.39881 5.23045 2.83358 4.75498C3.26171 4.28953 3.85578 3.9542 4.59422 3.73732ZM4.951 17.2872H14.4844L15.5364 10.6658C15.553 10.5623 15.6261 10.4722 15.7323 10.4405C18.1135 9.71149 19.1971 8.34348 19.4012 6.94712C19.5008 6.27146 19.3963 5.58746 19.1357 4.96185C18.8735 4.3329 18.4537 3.76568 17.9243 3.3336C16.8308 2.43772 15.2626 2.11241 13.6381 2.98159L13.6364 2.98325C13.502 3.06 13.3311 3.01328 13.2547 2.87815C12.8266 2.12408 12.3105 1.56687 11.7513 1.18984C11.1373 0.774433 10.4669 0.575906 9.79982 0.565896C9.12776 0.554218 8.45735 0.73773 7.84503 1.08974C7.241 1.43675 6.69339 1.94724 6.25862 2.59955C6.19225 2.69798 6.06779 2.74803 5.94831 2.71299C4.19596 2.20249 2.62615 2.80308 1.64046 3.87579C1.24551 4.30454 0.943498 4.81004 0.760962 5.35056C0.580085 5.88609 0.517027 6.45498 0.598339 7.01719C0.785854 8.31679 1.7533 9.58636 3.82425 10.3254C3.9205 10.3588 3.99351 10.4439 4.00845 10.5523L4.951 17.2872ZM3.47411 10.7975C1.287 9.9684 0.25152 8.55536 0.0407738 7.09727C-0.0538132 6.44663 0.0192013 5.78766 0.228288 5.17039C0.435716 4.55812 0.779216 3.98256 1.22892 3.49375C2.31086 2.31761 4.00679 1.64195 5.90848 2.11908C6.37312 1.47178 6.94396 0.957945 7.5679 0.599262C8.26486 0.198871 9.03317 -0.0096656 9.8048 0.000344168C10.5781 0.0103539 11.353 0.240579 12.0616 0.719379C12.6325 1.10476 13.1585 1.64862 13.6049 2.36765C15.3755 1.5235 17.0747 1.91054 18.2778 2.89483C18.8802 3.38698 19.3564 4.03094 19.6535 4.74164C19.9522 5.45733 20.0716 6.24644 19.9571 7.0272C19.7281 8.58872 18.5732 10.1069 16.0641 10.9243L14.5806 20.2618C14.559 20.4002 14.4396 20.4987 14.3035 20.4987V20.5003H5.08043C4.93275 20.5003 4.80995 20.3852 4.79999 20.2384L3.47411 10.7975ZM5.45878 11.8085C5.43555 11.655 5.54175 11.5116 5.69608 11.4882C5.84875 11.4665 5.99146 11.5716 6.01469 11.7268L6.59217 15.5922C6.6154 15.7457 6.50919 15.8892 6.35487 15.9125C6.2022 15.9359 6.05949 15.8291 6.03626 15.674L5.45878 11.8085Z" fill="white"/>
</svg>
